<?xml version="1.0"?><svg version="1.2" baseProfile="tiny-ps" viewBox="0 0 300 300" xmlns="http://www.w3.org/2000/svg" xmlns:xlink="http://www.w3.org/1999/xlink"><title>sageby</title><g><g fill="#0f355f" transform="matrix(.1 0 0 -.1 0 300)"><path d="M1255 2961c-125-23-234-59-350-116l-90-44-81-65-82-64-51-64-52-63-40-80-39-80-21-84-21-84 4-141 4-141 30-86 31-86 47-71 47-70 53-50c152-139 336-223 726-333 118-33 264-77 324-97l110-36 56-37 57-37 25-33c14-19 31-49 38-66l12-33-4-59-4-59-30-48-29-47-48-33c-61-42-139-71-230-85l-72-12-100 7-101 6-97 24-98 25-89 40-90 39-84 56c-47 31-110 79-140 107-31 28-60 49-64 47-14-5-347-378-350-392l-3-12 103-100 103-99 70-46c157-104 369-188 570-225l100-19h440l82 18c432 95 709 334 789 682l16 70 1 125v125l-21 78c-27 95-65 171-126 254l-45 62-58 46c-84 66-175 118-299 169-103 42-159 59-552 170-90 26-199 60-243 77l-80 31-41 31-42 32-23 46-24 46v62l-1 61 22 45 21 44 35 31c45 39 115 74 184 91l55 13h110l110-1 88-21c158-39 283-102 434-219 45-35 85-63 90-63s26 21 48 48c22 26 97 113 167 194 71 81 128 151 128 156s-30 42-66 81c-162 175-382 293-652 352l-97 21-200 4-200 4-100-19z"/></g><g fill="#0c1d35" transform="matrix(.1 0 0 -.1 0 300)"><path d="m1320 2972-45-7h460l85-18c123-26 213-54 312-97l86-37 88-59 89-58 82-83c46-46 83-87 83-93 0-5-21-34-48-63-26-29-83-95-127-147s-98-114-120-137l-40-44-97 73c-118 89-224 147-344 187l-91 31-102 11-102 12-85-12-84-12-56-21-56-22-53-48-53-48-17-43-17-42v-123l20-38c57-109 140-148 592-273 451-125 616-203 766-363l59-64 38-71 38-72 19-75 19-75 2-70 2-71h17l-6 73c-12 149-59 274-148 394l-45 62-58 46c-155 123-328 196-713 300-313 84-455 136-517 189l-31 26-22 44-21 44v61l-1 61 22 45 21 44 35 31c45 39 115 74 184 91l55 14 115-1 115-1 85-22c158-42 279-103 427-218 45-35 85-63 90-63s26 21 48 48c22 26 97 113 167 194 71 81 128 151 128 156s-30 42-66 81c-162 175-382 293-652 352l-97 21-195 3c-107 2-215 0-240-3zm-181-37c-116-32-251-92-340-150l-74-49-75-76-75-77-34-56c-45-77-79-164-98-250l-15-72 4-135 4-135 30-86 31-86 47-71 47-70 53-50c138-126 337-222 649-313 60-17 110-29 113-26 2 2-40 17-93 32-293 83-502 179-641 294-59 49-128 141-168 226l-34 71-15 69-15 70v100c0 124 13 204 47 296l26 71 47 72c127 194 340 332 619 401 53 13 85 24 71 24s-63-11-111-24zm341-1726c36-11 122-38 193-60l127-41 59-38 58-38 25-33c14-19 31-49 38-66l12-33-4-59-4-59-30-48-29-47-48-33c-61-42-139-71-230-85l-72-12-100 7-101 6-97 24-98 25-89 40-90 39-84 56c-47 31-110 79-140 107-31 28-60 49-64 47-14-5-347-378-350-392l-3-12 103-100 103-99 70-46C787 158 972 83 1175 40l100-22 197-5 196-6 104 18c450 75 761 328 843 685l15 65-1 55-2 55-8-80-8-80-26-80-25-80-39-70-39-71-66-70-65-71-73-50c-92-64-169-102-283-142l-90-32-113-20-114-19h-303l-105 15c-243 34-480 125-660 253-67 48-240 208-240 223 0 5 77 94 171 199l171 191 17-14c9-8 55-46 102-83l87-69 90-48 89-47 106-34 105-35 89-12 88-12 95 6 95 5 70 22c80 25 125 50 174 94l33 31 24 50 24 50v110l-19 40-18 40-47 44-48 43-73 34-73 34-140 40c-77 22-147 40-154 39-7 0 16-9 52-20z"/></g></g></svg>