<?xml version="1.0"?><svg version="1.2" baseProfile="tiny-ps" viewBox="0 0 180 180" xmlns="http://www.w3.org/2000/svg" xmlns:xlink="http://www.w3.org/1999/xlink"><title>Sageby</title><g><g fill="#fdfefe" transform="matrix(.1 0 0 -.1 0 180)"><path d="M0 900V0h1800v1800H0V900z"/></g><g fill="#eff0f2" transform="matrix(.1 0 0 -.1 0 180)"><path d="M110 1790v-10h329l6 10 6 10H110v-10zm520-50v-60l-47-1-48-2 23-4 24-5-46-24-47-25-10 6-9 6 2-13 3-13-23-3-22-3 6-12 7-12-9 8c-5 5-9 12-9 15 0 4-4 14-9 22l-9 15 14-12c20-20 25-16 24 20v32l-74 3-74 3-8-8-8-8 7-30 8-30 37-3 36-3 3-22 3-22 13 3 13 2-6-10c-3-6-10-8-15-5l-8 5-5-14c-3-8-16-20-28-26l-21-12 7 12 7 12-20-11c-11-6-22-18-26-27-9-23-8-26 7-18 6 4 3-3-8-15-11-13-20-28-20-34 0-17-68-117-78-117h-9l6 15 5 15H0v-82l52 4 53 3-1-100c0-55-4-139-9-187l-8-87-43-42-44-43V0h786l33 34 32 33 84 7c207 16 381 94 533 239l63 61 45 69c25 38 50 82 56 98l10 29h14c8 0 14 5 14 10 0 6-4 10-9 10h-10l15 28c7 15 14 35 14 44v17l18 10 17 11-15 10-15 10 11 8 10 7 4 50c1 28 3 74 4 102l1 53 17-6 18-5v10c0 6-5 11-10 11h-10l20 20c21 21 35 27 25 10l-6-10h23l-5 15-6 14 9 6 10 6v789h-791l-21-11-20-11 7 12 7 11-38-3-39-3 1-16 1-17-36 2c-20 2-44 3-53 4l-17 2 5 15 6 15H630v-60zm465-210c33-13 79-34 103-47l42-25-7-10-6-11 11 7 12 7 35-27 35-26-7-11-6-10 10 6 11 7 11-14c6-7 9-15 6-18s3-11 12-19l18-14-14 18-13 17h18l19-1 41-52c23-29 58-87 79-130l37-78 13-82 13-82-3-75c-2-42-9-98-15-125-15-60-87-215-100-215-6 0-10-7-10-15v-15h-13c-7 0-29-16-48-36-54-57-139-119-217-159l-73-37-15 6-15 6 7-12 7-11-15 6-16 5-11-11-12-12H907l-112 1-73 22-73 23-71 42-70 42-71 66-72 66-46 89-46 89-14 55-14 55v115l1 115 18 59c22 75 69 169 110 221 37 48 116 128 116 118 0-4 7 3 16 15 8 12 20 22 26 22s25 10 42 23 37 27 45 32l14 8-6-10c-3-5 16 1 43 14l49 23 47 5c26 3 50 8 53 11s53 4 111 1l105-5 60-22zm425-116c0-2-4-5-9-9l-10-5-5 8-5 9h14c8 0 15-2 15-3zm-96-75-5-9-10 6-9 5 6 10 5 9 10-6 9-5-6-10zm-177 80c7-7 15-10 18-7s-2 9-12 12l-18 7 12-12zm-129-488-3-129 59-6 59-6 23 15 23 15 11 40 11 39-15 35-15 35-26 7c-14 3-39 4-55 0l-30-5v89h-39l-3-129zm130-16 11-23-6-23c-7-29-20-39-50-39h-22l-11 19c-5 11-10 30-10 42v22l15 17 16 17 23-4 24-5 10-23zm-683 67c-11-1-30-5-41-7l-22-5-4-25-5-26 17 16c21 19 41 19 65 1l20-14-37-7-36-7-22-23-23-24 6-21 5-20-9 6c-5 3-9 2-9-1s16-13 35-21l36-15 11 7c6 4 27 7 46 6l35-1-5 75-5 75-19 17-19 18-20-4zm21-107 6-15-12-15c-14-17-46-20-54-6-9 14 4 39 22 44 29 8 33 7 38-8zm203 107c-1-4-1-11 1-17l1-10-12 13-13 12h-63l-15-17c-9-10-21-28-27-41l-12-23 6-30 7-30 21-22 22-22h73l-4 7c-2 4 0 9 6 13l10 6v-14c0-7-10-23-21-36l-22-23-21 5c-11 2-27 6-35 8l-15 4-4-17-3-17 35-6 35-7 35 12 35 11 11 37 10 37v163l-20 5c-11 3-21 2-21-1zm-16-50 17-15v-50l-17-19c-20-22-46-23-63-2l-13 15v29c0 52 39 74 76 42zm550 51c-19-7-16-26 12-89l25-56v-55l-20-18c-11-10-20-24-20-32v-13h39l20 25c11 14 32 58 47 98s31 76 35 82c5 5 9 20 9 33v23l-17-3-18-3-21-59-20-58-30 65-29 64-12-4zm-958-13-7-11-15 6-16 5 10-12c5-7 8-23 7-35l-1-23h18l-6-10-6-10 8 1c4 1 14 1 22 0l13-1-13-17-14-18 17 13 17 14 11-7c5-3 10-13 10-21v-16l-33 3c-18 2-38 0-45-5l-12-7 5-10c4-5 15-9 26-9 10 0 19-4 19-8 0-5 7-9 15-9s15 4 15 8c0 3 9 9 20 12 24 6 34 29 27 60l-6 22-36 19c-38 21-44 33-19 43l15 6 24-11 24-11-8 22-8 22-36 3-35 3-7-11zm526-12-21-22-6-32-6-32 7-22 7-21 29-18 29-18-7-7-7-7 18 7 19 7-6-10-6-10 39 19 40 20-6 9-5 9h-88l-11 19c-16 30-14 31 50 31h60v47l-21 27-20 26h-68l-20-22zm73-14c9-3 16-12 16-20v-14h-81l11 20c11 21 27 25 54 14zm87-107-11-14 6-17c7-18 13-19 32-7l14 8-4 18c-4 24-22 29-37 12zM29 1767c0-1-1-37-2-79l-2-77-13-13-12-12v-66h100v89l43-2 42-2v35l-1 35-41 3-42 3-3 41-3 41-32 3c-18 2-33 3-34 1zm431-37v-40h76v65l-11 7c-5 4-22 8-37 8h-28v-40zm-260-174v-34l27-5c37-7 43-2 43 39v34h-70v-34zm-77-53-13-5v-68h81l-3 37-3 36-25 3c-14 1-31 0-37-3zM2 1038 0 910h15l-3 87c-4 156-8 171-10 41zm1768-99v-10l10 6c6 3 10 8 10 11 0 2-4 4-10 4-5 0-10-5-10-11zm-40-39c0-5 5-10 10-10 6 0 10 5 10 10 0 6-4 10-10 10-5 0-10-4-10-10zm40 0c0-5 5-10 10-10 6 0 10 5 10 10 0 6-4 10-10 10-5 0-10-4-10-10zm-40-40c0-5 5-10 10-10 6 0 10 5 10 10 0 6-4 10-10 10-5 0-10-4-10-10zm40 0c0-5 5-10 10-10 6 0 10 5 10 10 0 6-4 10-10 10-5 0-10-4-10-10zm-40-40c0-5 5-10 10-10 6 0 10 5 10 10 0 6-4 10-10 10-5 0-10-4-10-10zm40 0c0-5 5-10 10-10 6 0 10 5 10 10 0 6-4 10-10 10-5 0-10-4-10-10zm-40-40c0-5 5-10 10-10 6 0 10 5 10 10 0 6-4 10-10 10-5 0-10-4-10-10zm40 0c0-5 5-10 10-10 6 0 10 5 10 10 0 6-4 10-10 10-5 0-10-4-10-10zm-40-40c0-5 5-10 10-10 6 0 10 5 10 10 0 6-4 10-10 10-5 0-10-4-10-10zm40 0c0-5 5-10 10-10 6 0 10 5 10 10 0 6-4 10-10 10-5 0-10-4-10-10zm-40-40c0-5 5-10 10-10 6 0 10 5 10 10 0 6-4 10-10 10-5 0-10-4-10-10zm40 0c0-5 5-10 10-10 6 0 10 5 10 10 0 6-4 10-10 10-5 0-10-4-10-10zm-80-40c0-5 5-10 10-10 6 0 10 5 10 10 0 6-4 10-10 10-5 0-10-4-10-10zm40 0c0-5 5-10 10-10 6 0 10 5 10 10 0 6-4 10-10 10-5 0-10-4-10-10zm40 0c0-5 5-10 10-10 6 0 10 5 10 10 0 6-4 10-10 10-5 0-10-4-10-10zm-80-40c0-5 5-10 10-10 6 0 10 5 10 10 0 6-4 10-10 10-5 0-10-4-10-10zm40 0c0-5 5-10 10-10 6 0 10 5 10 10 0 6-4 10-10 10-5 0-10-4-10-10zm40 0c0-5 5-10 10-10 6 0 10 5 10 10 0 6-4 10-10 10-5 0-10-4-10-10zm-80-40c0-5 5-10 10-10 6 0 10 5 10 10 0 6-4 10-10 10-5 0-10-4-10-10zm40 0c0-5 5-10 10-10 6 0 10 5 10 10 0 6-4 10-10 10-5 0-10-4-10-10zm40 0c0-5 5-10 10-10 6 0 10 5 10 10 0 6-4 10-10 10-5 0-10-4-10-10zm-120-40c0-5 5-10 10-10 6 0 10 5 10 10 0 6-4 10-10 10-5 0-10-4-10-10zm40 0c0-5 5-10 10-10 6 0 10 5 10 10 0 6-4 10-10 10-5 0-10-4-10-10zm40 0c0-5 5-10 10-10 6 0 10 5 10 10 0 6-4 10-10 10-5 0-10-4-10-10zm40 0c0-5 5-10 10-10 6 0 10 5 10 10 0 6-4 10-10 10-5 0-10-4-10-10z"/></g><g fill="#c2d6ed" transform="matrix(.1 0 0 -.1 0 180)"><path d="m971 1765-38-35h-59c-123-1-253-41-386-118l-78-46-70-64-70-64v-26l57-45 57-46 74 70 75 70 91 44 91 44 62 12 63 12 82-6 83-5 65-21c80-25 177-82 242-140l49-44 57 56 57 57 47-58c97-120 154-247 179-401l12-72 44 43 43 42v776h-790l-39-35zm155-713c-2-4-5-63-5-130l-1-122h15c8 0 15 5 15 10v11l19-11c11-5 33-10 50-10h30l20 26 21 27v78l-25 24c-26 27-41 30-79 15l-26-10v100h-14c-8 0-17-4-20-8zm116-119 18-16v-24c0-31-15-59-35-67l-15-5-25 11-25 11v34c0 19 5 43 10 54l11 19h42l19-17zm-875 34-19-13 4-29 3-30 33-14 32-15v-36l-17-1c-10-1-29 0-42 1l-23 2 4-14 5-13 41-3 41-3 16 25 16 25-10 20c-6 11-23 26-39 33l-27 13v30h30l30 1v29l-30 3-30 3-18-14zm146 6c-7-2-13-10-13-17v-13l42 1 42 1 4-17 3-18h-62l-24-25c-14-13-25-31-25-39v-15l26-20 26-21 10 6c5 4 27 6 47 6l38-1-4 72-4 71-16 18-16 18-31-1c-17 0-37-3-43-6zm77-108v-24l-16-9-17-9-18 4-19 5v37l18 10c9 6 25 11 35 11h17v-25zm95 90-25-24v-88l23-21 23-22h60l12 12 12 12v-15c0-8-6-24-14-35l-14-19h-85l-4-12-4-11 30-7 31-7 30 7 31 7 14 21 14 22 3 97 3 97-7 7-8 7-13-11-13-11-14 9c-8 6-25 10-38 10h-23l-24-25zm99-37 10-28-10-27-9-28h-69l-9 32-10 32 17 26 17 26 27-3 27-3 9-27zm113 42-25-20-6-35-7-34 16-31 15-30 24-6c13-3 38-4 56-2l33 3 4 12 4 12-39-2-40-1-16 13c-9 7-16 20-16 27v14h120v51l-25 24-24 25h-48l-26-20zm81-32 3-18h-81v8c0 4 6 14 12 20l13 13 25-3 25-3 3-17zm332 44c0-5 14-42 30-82 36-88 37-94 5-126-14-14-25-29-25-34 0-18 21-10 49 18l28 27 36 95c42 107 42 110 23 110h-15l-20-55c-12-31-21-61-21-67v-11l-7 7c-4 4-17 33-29 64l-21 57-16 3-17 3v-9zM43 829 0 789V0h787l37 40 37 40h146l78 20 78 20 86 46c47 26 106 62 131 82 65 51 140 125 140 137s-82 95-94 95c-4 0-37-26-73-59l-65-59-76-43c-42-24-101-52-131-63l-56-19-100-5-101-4-79 21-79 22-69 36-68 36-50 45-50 45-55-54-54-53-15 19c-63 80-110 153-135 208-35 78-70 198-71 247 0 19-3 43-7 52l-7 17-42-40zm1002 1-7-12 10-10 11-11 16 7 17 6-4 13c-3 6-12 13-20 15l-16 3-7-11z"/></g><g fill="#96cdf0" transform="matrix(.1 0 0 -.1 0 180)"><path d="m985 1766-30-33-91-6-90-5-62-17c-135-34-272-113-392-224l-55-51 60-54 59-54 52 53c89 90 203 156 318 184l49 12h81c45 0 103-5 130-11 102-23 220-86 316-168l35-31 56 56 57 55 51-63c92-114 150-246 173-390l12-79 43 42 43 42v776h-8c-4 0-14-6-21-12l-14-13 7 13 7 12h-756l-30-34zm459-265c-3-3-15 6-27 18l-22 24 27-19c14-10 24-21 22-23zm-313-578V795l11 17 12 16 22-14 22-15 25 6c14 4 34 16 44 27l18 20v80l-24 19-23 19h-24c-12 0-25-4-28-9l-6-9 20 5 21 6 19-18 20-18v-83l-12-12-12-12h-55l-15 22c-18 26-20 61-6 89l11 19h-21v100h-20l1-127zm-759 41-22-15v-48l33-17c17-9 35-22 39-28l7-10-11-14-11-13-28 3-28 3-1-10v-10h84l13 24 12 25-9 16c-5 10-23 23-40 30l-30 12v38h70v9c0 5-10 11-22 15-31 8-31 8-56-10zm151 9c-13-2-23-8-23-13v-9l42-3 43-3 3-17 3-18h-57l-22-16-22-15v-55l12-12c15-15 53-16 79-2l19 11v-11c0-5 5-10 10-10h10v140l-20 20-20 20-17-1c-10-1-28-4-40-6zm67-107v-24l-15-12-14-12-18 4-18 3-3 19-4 20 18 13c10 7 26 13 36 13h18v-24zm114 102c-26-12-44-48-44-89v-30l25-24 24-25h21c12 0 30 5 41 10l19 11v-20c0-11-8-27-17-36l-17-17-38 5-38 5v-28h48c53 0 64 5 81 37l11 22v181h-10c-5 0-10-5-10-11v-10l-22 15c-26 18-44 19-74 4zm74-30 12-12v-75l-22-15c-29-20-34-20-58 4l-20 20v26c0 14 5 34 10 45l11 19h55l12-12zm137 30c-11-6-26-18-32-26l-13-16v-83l24-22 24-22 43 3 44 3-3 10-3 10-22-3c-12-1-31 0-43 2l-21 6-11 25-12 25h130v15c0 9-7 29-15 44l-14 28-23 7c-29 7-29 7-53-6zm55-28 21-21-6-9-6-10-36 3-36 2-4 11c-4 13 23 44 38 44 5 0 18-9 29-20zm350 21c0-9 22-65 47-118l15-31-13-23c-6-13-21-31-33-41l-21-17 13-1c21 0 61 46 83 97 31 71 51 134 45 140-7 7-36-52-36-74 0-10-7-27-15-37l-14-19-10 24c-32 83-44 109-52 109-5 0-9-4-9-9zM38 815 0 780V29l12 7 13 7-13-14C6 22 0 12 0 8V0h776l39 40 39 40h61c33 0 92 7 130 15l70 15 90 44 90 45 70 53c39 29 87 72 109 95l38 42-42 42-43 42-12-9c-7-5-40-32-74-61-33-29-92-70-130-93l-68-41-69-21-69-21H895l-110-1-79 27c-92 32-153 65-218 119-52 43-71 47-90 19-7-10-28-31-46-46l-32-27-40 43C186 466 111 638 96 784c-4 36-11 66-14 66-4 0-24-16-44-35zm1012 5v-20h30v40h-30v-20z"/></g><g fill="#9398c1" transform="matrix(.1 0 0 -.1 0 180)"><path d="m1628 1639-156-162 53-65c94-113 154-247 177-393l12-79 43 42 43 42v776h-8c-4 0-78-73-164-161zm-833 84c-161-22-331-109-475-242l-55-51 60-54 59-54 52 53c89 90 203 156 318 184l49 12h81c163 0 288-49 437-172l46-38 52 53 52 53-46 41c-108 101-255 177-398 206l-76 16-63-1c-35-1-76-4-93-6zM372 964l-22-15v-48l33-17c17-9 35-22 39-28l7-10-11-14-11-13-28 3-28 3-1-10v-10h84l13 24 12 25-9 16c-5 10-23 23-40 30l-30 12v38h70v9c0 5-10 11-22 15-31 8-31 8-56-10zm151 9c-13-2-23-8-23-13v-9l42-3 43-3 3-17 3-18h-57l-22-16-22-15v-55l12-12c7-7 24-12 38-12h26l13 13 14 12 4-12c3-7 9-13 14-13h9v140l-20 20-20 20-17-1c-10-1-28-4-40-6zm67-107v-24l-15-12-14-12-18 4-18 3-3 19-4 20 18 13c10 7 26 13 36 13h18v-24zm114 102c-26-12-44-48-44-89v-30l25-24 24-25h21c12 0 30 5 41 10l19 11v-20c0-11-8-27-17-36l-17-17-38 5-38 5v-28h48c53 0 64 5 81 37l11 22v181h-10c-5 0-10-5-10-11v-10l-22 15c-26 18-44 19-74 4zm74-30 12-12v-75l-22-15c-29-20-34-20-58 4l-20 20v26c0 14 5 34 10 45l11 19h55l12-12zm137 30c-11-6-26-18-32-26l-13-16v-83l24-22 24-22 43 3 44 3-3 10-3 10-22-3c-12-1-31 0-43 2l-21 6-11 25-12 25h130v15c0 9-7 29-15 44l-14 28-23 7c-29 7-29 7-53-6zm55-26 23-19-7-12-7-11-36 3-36 2-4 11c-4 12 23 44 37 44 4 0 18-8 30-18zm80-122v-20h30v40h-30v-20zM155 160-5 0h781l37 38 37 38-77 13-78 13-76 29c-91 35-175 84-245 144-29 25-54 45-56 45s-75-72-163-160z"/></g><g fill="#5e5ba3" transform="matrix(.1 0 0 -.1 0 180)"><path d="m1636 1641-159-160 17-23c9-13 35-45 57-73 22-27 58-86 79-130l40-80 20-79c11-44 20-95 20-115v-36l45 45 45 46-2 382-3 382-159-159zm-876 73c-146-28-330-127-438-236l-52-54 56-47 56-47 76 70 75 69 81 40 81 40 77 15c42 9 99 16 126 16h49l75-19 76-20 70-35 70-35 62-52 62-51 49 48c27 27 49 51 49 55 0 13-110 95-189 142-42 25-110 57-151 72l-75 28-130 3c-71 1-141 0-155-2zM358 945l-11-24 13-16c7-8 24-21 39-28l26-12v-40h-75l3-10c5-13 33-18 63-11l24 6 6 26 6 25-17 19c-10 11-24 20-30 20-7 0-18 7-25 15l-12 15 13 16 13 15 23-6 23-5v20h-70l-12-25zm147 14-7-10 35 6 35 7 16-23 16-23-46-12-46-11-9-14c-5-8-9-24-9-37v-22l25-12 25-11 27 12 27 13 4-11c2-6 8-11 13-11h9v131l-10 20-11 19h-88l-6-11zm95-88c0-40-51-66-78-39-16 16-15 23 4 42l15 16h59v-19zm81 73-21-27v-24c0-13 7-37 15-52l14-28 23-6 22-6 28 14 28 13v-56l-15-12-15-12-40 4-40 4 3-11 4-10 41-3 42-3 25 25 25 25v191h-9c-5 0-11-6-14-12l-4-13-14 13-13 12h-65l-20-26zm93 3 17-13-3-49-3-50-27-9-27-10-21 19-20 18v76l22 15c27 19 39 20 62 3zm130 15c-19-12-34-49-34-82v-31l25-24 24-25h70l6 10 6 10h-71l-21 21-20 20 4 12 4 12 56 3 57 3v46l-18 16-19 17h-29c-16 0-34-4-40-8zm70-18c9-8 16-22 16-30v-14H890v10c0 15 38 50 54 50 8 0 22-7 30-16zM160 155 5 0h771l39 40 39 40h-35c-20 0-71 9-114 20l-79 20-80 40-81 39-73 55c-40 31-74 56-75 56s-72-70-157-155z"/></g></g></svg>